<svg xmlns="http://www.w3.org/2000/svg" width="376.758" height="782.667" viewBox="0 0 376.758 782.667">
  <path id="Subtraction_1" d="M-4022.87-7486.72-4024-8253.914a40.292,40.292,0,0,0,4.774,7.653,70.607,70.607,0,0,0,6.971,7.845,87.877,87.877,0,0,0,10.918,8.992c10.153,7.11,22.383,12.775,36.352,16.838,17.462,5.078,37.7,7.653,60.164,7.653,57.182,0,128.915-16.479,213.208-48.981,14.66-5.652,29.589-10.858,44.371-15.474v704.848c-6.247-.32-12.812-.483-19.515-.483-33.85,0-73.635,4.116-118.248,12.235-35.691,6.495-74.537,15.55-115.458,26.917-36.412,10.114-67.753,20.22-87.633,26.917-21.354,7.193-34.235,12.032-34.773,12.234Z" transform="translate(4024 8269.388)" fill="#d9d9d9"/>
</svg>
