<svg xmlns="http://www.w3.org/2000/svg" width="29.394" height="29.394" viewBox="0 0 29.394 29.394">
  <g id="call" transform="matrix(-0.259, -0.966, 0.966, -0.259, 6.212, 29.394)">
    <g id="Group_9042" >
      <path id="Path_3661"  d="M22.074,15.753a13.626,13.626,0,0,1-4.279-.682,1.956,1.956,0,0,0-1.9.4l-2.7,2.037a14.913,14.913,0,0,1-6.705-6.7L8.466,8.178a1.94,1.94,0,0,0,.477-1.965,13.647,13.647,0,0,1-.684-4.286A1.928,1.928,0,0,0,6.333,0H1.926A1.928,1.928,0,0,0,0,1.926,22.1,22.1,0,0,0,22.074,24,1.928,1.928,0,0,0,24,22.074v-4.4A1.928,1.928,0,0,0,22.074,15.753Z" fill="#9a181a"/>
    </g>
  </g>
</svg>
