<svg xmlns="http://www.w3.org/2000/svg" width="21.741" height="24" viewBox="0 0 21.741 24">
  <g id="cv" transform="translate(-24.1)">
    <path id="Path_3656" d="M106.392,64.267h-.9V75.514a2.1,2.1,0,0,1-.618,1.492L98.846,83.03a2.1,2.1,0,0,1-1.492.618H88.367v.9a.7.7,0,0,0,.7.7h17.322a.7.7,0,0,0,.7-.7V64.97A.7.7,0,0,0,106.392,64.267Z" transform="translate(-61.254 -61.254)" fill="#9a181a"/>
    <path id="Path_3657"  d="M248.833,158.533a1.935,1.935,0,0,0-1.933,1.933v.427h3.866v-.427A1.935,1.935,0,0,0,248.833,158.533Z" transform="translate(-212.356 -151.102)" fill="#9a181a"/>
    <path id="Path_3658"  d="M271.8,95.957a.8.8,0,1,0-.8-.8A.8.8,0,0,0,271.8,95.957Z" transform="translate(-235.326 -89.932)" fill="#9a181a"/>
    <path id="Path_3659"  d="M35.4,14.259a.7.7,0,0,1,.7-.7h6.728V.7a.7.7,0,0,0-.7-.7H24.8a.7.7,0,0,0-.7.7V20.284a.7.7,0,0,0,.7.7H35.4ZM27.816,3.766h3.013a.7.7,0,0,1,0,1.406H27.816A.7.7,0,0,1,27.816,3.766Zm0,3.013h3.013a.7.7,0,0,1,0,1.406H27.816A.7.7,0,0,1,27.816,6.778Zm0,3.013h3.013a.7.7,0,0,1,0,1.406H27.816A.7.7,0,0,1,27.816,9.791Zm5.272,7.431H27.816a.7.7,0,0,1,0-1.406h5.272A.7.7,0,0,1,33.087,17.222Zm0-3.013H27.816a.7.7,0,0,1,0-1.406h5.272A.7.7,0,0,1,33.087,14.209Zm.05-3.716V9.364A3.339,3.339,0,0,1,34.7,6.537a2.209,2.209,0,1,1,3.548,0,3.339,3.339,0,0,1,1.565,2.827v1.13a.7.7,0,0,1-.7.7H33.841A.7.7,0,0,1,33.137,10.494Z" transform="translate(0)" fill="#9a181a"/>
    <path id="Path_3660"  d="M300.713,319.2H295.1v5.613Z" transform="translate(-258.297 -304.238)" fill="#9a181a"/>
  </g>
</svg>
