<svg xmlns="http://www.w3.org/2000/svg" width="24.048" height="24" viewBox="0 0 24.048 24">
  <g id="global" transform="translate(0 -0.316)">
    <path id="Path_3640"  d="M231.816,349.872c1.977-.281,3.711-2.345,4.8-5.392a23.471,23.471,0,0,0-4.8-.565Zm0,0" transform="translate(-219.576 -325.555)" fill="#9a181a"/>
    <path id="Path_3641"  d="M279.9,362.295c.117-.034.233-.068.349-.105.1-.031.194-.065.29-.1.114-.039.227-.08.34-.123.1-.037.191-.075.287-.114l.329-.139c.1-.042.189-.086.284-.13s.213-.1.318-.155.185-.1.277-.145.206-.112.309-.17.182-.1.272-.159l.3-.185c.089-.056.177-.114.264-.173s.194-.134.289-.2.171-.123.255-.185.187-.145.28-.219.164-.131.245-.2.181-.156.27-.236.157-.139.234-.21.174-.168.26-.252.15-.146.223-.221l.04-.044a15.534,15.534,0,0,0-3.166-1.218,11.467,11.467,0,0,1-2.953,4.8l.112-.027c.1-.028.2-.058.292-.087Zm0,0" transform="translate(-265.16 -338.463)" fill="#9a181a"/>
    <path id="Path_3642"  d="M342.032,231.684h-5.541a23.966,23.966,0,0,1-.933,6.393,16.071,16.071,0,0,1,3.507,1.4A12.91,12.91,0,0,0,342.032,231.684Zm0,0" transform="translate(-317.984 -219.342)" fill="#9a181a"/>
    <path id="Path_3643"  d="M231.816,115.108h6a23.116,23.116,0,0,0-.91-6.166,24.34,24.34,0,0,1-5.091.607Zm0,0" transform="translate(-219.645 -102.928)" fill="#9a181a"/>
    <path id="Path_3644"  d="M231.816.316V6.274a23.486,23.486,0,0,0,4.8-.565c-1.091-3.048-2.824-5.111-4.8-5.392Zm0,0" transform="translate(-219.576)" fill="#9a181a"/>
    <path id="Path_3645"  d="M231.816,237.242a24.356,24.356,0,0,1,5.091.607,23.119,23.119,0,0,0,.91-6.166h-6Zm0,0" transform="translate(-219.645 -219.231)" fill="#9a181a"/>
    <path id="Path_3646"  d="M339.065,80.844a16.071,16.071,0,0,1-3.507,1.4,23.966,23.966,0,0,1,.933,6.393h5.541a12.914,12.914,0,0,0-2.967-7.789Zm0,0" transform="translate(-317.984 -76.342)" fill="#9a181a"/>
    <path id="Path_3647"  d="M285.58,10.373l-.04-.043c-.073-.075-.149-.148-.223-.221s-.171-.17-.26-.252-.156-.139-.234-.21-.179-.16-.271-.236-.162-.132-.243-.2-.187-.149-.283-.221-.168-.124-.253-.185-.194-.139-.292-.2-.174-.115-.262-.171-.2-.127-.3-.188-.179-.106-.269-.157-.207-.116-.311-.172-.185-.1-.277-.143-.213-.105-.323-.156q-.139-.066-.282-.129c-.109-.049-.22-.092-.33-.139-.1-.039-.19-.077-.286-.114-.112-.043-.226-.083-.34-.122-.1-.034-.192-.067-.29-.1-.116-.037-.231-.072-.35-.106-.1-.028-.193-.057-.29-.083l-.113-.028a11.468,11.468,0,0,1,2.953,4.8,15.508,15.508,0,0,0,3.17-1.22Zm0,0" transform="translate(-265.123 -6.106)" fill="#9a181a"/>
    <path id="Path_3648"  d="M0,88.632H5.541a23.974,23.974,0,0,1,.933-6.393,16.051,16.051,0,0,1-3.507-1.4A12.911,12.911,0,0,0,0,88.632Zm0,0" transform="translate(0 -76.342)" fill="#9a181a"/>
    <path id="Path_3649"  d="M137.5,349.871v-5.957a23.484,23.484,0,0,0-4.8.565c1.09,3.048,2.824,5.111,4.8,5.392Zm0,0" transform="translate(-125.688 -325.555)" fill="#9a181a"/>
    <path id="Path_3650" d="M117.922,231.684h-6a23.109,23.109,0,0,0,.91,6.166,24.324,24.324,0,0,1,5.091-.607Zm0,0" transform="translate(-106.045 -219.231)" fill="#9a181a"/>
    <path id="Path_3651"  d="M137.5.316c-1.977.281-3.711,2.345-4.8,5.392a23.454,23.454,0,0,0,4.8.565Zm0,0" transform="translate(-125.688)" fill="#9a181a"/>
    <path id="Path_3652"  d="M117.923,109.548a24.34,24.34,0,0,1-5.091-.607,23.108,23.108,0,0,0-.91,6.166h6Zm0,0" transform="translate(-106.045 -102.927)" fill="#9a181a"/>
    <path id="Path_3653"  d="M68.309,6.789l-.112.027c-.1.026-.194.055-.292.083-.116.034-.231.068-.347.1-.1.032-.195.066-.291.1-.113.04-.226.08-.338.122-.1.037-.192.075-.287.115l-.329.139c-.1.042-.189.086-.284.13s-.213.1-.318.155-.185.1-.277.145-.206.112-.308.171-.183.1-.273.159-.2.123-.3.185-.177.114-.264.173S64.1,8.73,64,8.8s-.171.123-.256.185-.185.145-.28.219-.165.131-.245.2-.18.155-.269.234-.159.139-.236.212-.173.167-.259.251-.15.146-.223.222l-.04.044a15.514,15.514,0,0,0,3.166,1.219,11.463,11.463,0,0,1,2.952-4.793Zm0,0" transform="translate(-58.599 -6.099)" fill="#9a181a"/>
    <path id="Path_3654"  d="M62.49,359.045c.086.085.171.17.26.253s.156.139.234.21.179.16.271.236.161.132.243.2.185.149.283.221.168.123.252.185.194.139.292.205.174.115.262.171.2.127.3.188.179.106.269.158.207.116.311.172.185.1.277.143.213.105.323.156q.139.065.282.128c.109.049.22.092.33.139.1.039.19.077.286.114.112.043.226.083.34.123.1.034.192.067.29.1.116.037.231.072.35.106.1.028.193.057.29.083l.113.028a11.47,11.47,0,0,1-2.953-4.8,15.517,15.517,0,0,0-3.166,1.219l.04.043C62.34,358.9,62.414,358.972,62.49,359.045Zm0,0" transform="translate(-58.636 -338.415)" fill="#9a181a"/>
    <path id="Path_3655"  d="M2.967,239.472a16.073,16.073,0,0,1,3.507-1.4,23.973,23.973,0,0,1-.933-6.393H0A12.913,12.913,0,0,0,2.967,239.472Zm0,0" transform="translate(0 -219.341)" fill="#9a181a"/>
  </g>
</svg>
