<svg xmlns="http://www.w3.org/2000/svg" xmlns:xlink="http://www.w3.org/1999/xlink" width="18" height="18" viewBox="0 0 18 18">
  <defs>
    <clipPath id="clip-path">
      <rect id="Rectangle_440"  width="18" height="18" transform="translate(0 0)" fill="#fff" stroke="#707070" stroke-width="1"/>
    </clipPath>
  </defs>
  <g id="Mask_Group_44"  transform="translate(0 0)" clip-path="url(#clip-path)">
    <path id="heart" d="M8.465,16.344a.949.949,0,0,1-.654-.267c-.684-.649-1.343-1.259-1.925-1.8l0,0A37.213,37.213,0,0,1,1.679,10,7.164,7.164,0,0,1,0,5.521,6.033,6.033,0,0,1,1.343,1.6,4.4,4.4,0,0,1,4.73,0,4.051,4.051,0,0,1,7.39,1,5.726,5.726,0,0,1,8.465,2.215,5.726,5.726,0,0,1,9.541,1,4.051,4.051,0,0,1,12.2,0a4.4,4.4,0,0,1,3.387,1.6A6.033,6.033,0,0,1,16.93,5.521,7.163,7.163,0,0,1,15.251,10a37.209,37.209,0,0,1-4.2,4.281c-.583.539-1.243,1.15-1.929,1.8a.95.95,0,0,1-.654.267ZM4.73,1.076A3.448,3.448,0,0,0,2.072,2.329,4.91,4.91,0,0,0,.992,5.521,6.022,6.022,0,0,0,2.443,9.31a36.611,36.611,0,0,0,4.083,4.149l0,0c.584.54,1.246,1.152,1.935,1.806.693-.655,1.356-1.268,1.941-1.809A36.62,36.62,0,0,0,14.488,9.31a6.023,6.023,0,0,0,1.451-3.789,4.91,4.91,0,0,0-1.08-3.192A3.448,3.448,0,0,0,12.2,1.076a3.129,3.129,0,0,0-2.054.771A5.134,5.134,0,0,0,9,3.285a.6.6,0,0,1-1.075,0A5.129,5.129,0,0,0,6.783,1.848,3.129,3.129,0,0,0,4.73,1.076Zm0,0" transform="translate(0.731 1.311)" fill="#404040"/>
  </g>
</svg>
