<svg xmlns="http://www.w3.org/2000/svg" width="142.16" height="112.316" viewBox="0 0 142.16 112.316">
  <g id="Group_456" transform="translate(-126.712 -219.19)">
    <g id="Group_455"  transform="translate(8 6)">
      <path id="Subtraction_1" d="M-1514.947,95.955a10.516,10.516,0,0,1-10.5-10.5,10.516,10.516,0,0,1,10.5-10.5,10.435,10.435,0,0,1,7.427,3.076,10.435,10.435,0,0,1,3.076,7.427,10.435,10.435,0,0,1-3.076,7.427A10.435,10.435,0,0,1-1514.947,95.955Zm21.488-26.806a7.383,7.383,0,0,1-5.251-2.185,22.768,22.768,0,0,0-16.238-6.728,22.766,22.766,0,0,0-16.237,6.728,7.454,7.454,0,0,1-5.276,2.171,7.38,7.38,0,0,1-5.255-2.171,7.48,7.48,0,0,1,0-10.532,37.525,37.525,0,0,1,12.51-8.3,37.761,37.761,0,0,1,14.241-2.767,37.717,37.717,0,0,1,14.251,2.774,37.439,37.439,0,0,1,12.507,8.322,7.376,7.376,0,0,1,2.172,5.252,7.376,7.376,0,0,1-2.172,5.251A7.386,7.386,0,0,1-1493.458,69.15Zm20.47-21.545a7.444,7.444,0,0,1-5.295-2.2,51.479,51.479,0,0,0-36.649-15.154A51.479,51.479,0,0,0-1551.581,45.4a7.516,7.516,0,0,1-5.32,2.19,7.439,7.439,0,0,1-5.3-2.19,7.542,7.542,0,0,1,0-10.618,66.2,66.2,0,0,1,22.092-14.666,66.7,66.7,0,0,1,25.161-4.889,67.306,67.306,0,0,1,15.871,1.9,66.564,66.564,0,0,1,15.129,5.693,26.324,26.324,0,0,0,12.911,8.838c1.143,1,2.267,2.05,3.342,3.126a7.542,7.542,0,0,1,0,10.618A7.445,7.445,0,0,1-1472.988,47.6Zm-102.735-23.27a7.234,7.234,0,0,1-5.15-2.128,7.333,7.333,0,0,1,0-10.32,92.46,92.46,0,0,1,30.827-20.435,93.41,93.41,0,0,1,17.282-5.109,94.178,94.178,0,0,1,17.815-1.7,93.446,93.446,0,0,1,31.063,5.288,26.291,26.291,0,0,0-5.6,13.472,78.847,78.847,0,0,0-25.453-4.2,78.072,78.072,0,0,0-55.61,23.011A7.305,7.305,0,0,1-1575.723,24.335Z" transform="translate(1702.207 229.05)" fill="#920A0C" stroke="#920A0C" stroke-width="1"/>
      <ellipse id="Ellipse_96" cx="21.911" cy="21.911" rx="21.911" ry="21.911" transform="translate(217.049 213.55)" fill="#f2f2f2"/>
    </g>
    <g id="Group_454"  transform="translate(8 6)">
      <path id="Path_3653" d="M2823.8,3362.564l-19.017,19.017" transform="translate(-2575.326 -3136.611)" fill="none" stroke="#920A0C" stroke-linecap="round" stroke-width="4"/>
      <path id="Path_3654" d="M19.017,0,0,19.017" transform="translate(229.452 244.97) rotate(-90)" fill="none" stroke="#920A0C" stroke-linecap="round" stroke-width="4"/>
    </g>
  </g>
</svg>
